# xmcd
# Copyright (C) 1995-1998 Ti Kan
#
# Track frame offsets:
#       150
#       15532
#       44210
#
# Disc length: 1125 seconds
#
# Revision: 0
# Processed by: cddbd v1.5.2PL0 Copyright (c) Steve Scherf et al.
# Submitted via: CD-Transfer v1.0
#
DISCID=21046303
DTITLE=Leona Lewis - Forgive Me
DYEAR=08
DGENRE=
TTITLE0=Forgive Me
TTITLE1=Myself
TTITLE2=Data Track
EXTD=
EXTT0=
EXTT1=
EXTT2=
PLAYORDER=
